# xmcd
#
# Track frame offsets:
#	150
#	19749
#	40236
#	56901
#	73814
#	87825
#	106594
#	128427
#	147618
#	167156
#	182570
#	200744
#	216589
#	235711
#
# Disc length: 3225 seconds
#
# Revision: 2
# Processed by: cddbd v1.5.2PL0 Copyright (c) Steve Scherf et al.
# Submitted via: audiograbber 1.83.01
#
DISCID=cc0c970e
DTITLE=Brendon Walmsley - Bottle Tree Lane
DYEAR=2004
DGENRE=Country
TTITLE0=Bottle Tree Lane
TTITLE1=Patches
TTITLE2=Still Falling
TTITLE3=Bed Of Roses
TTITLE4=Forever Young
TTITLE5=Rolling Up His Sleeve
TTITLE6=What I Miss Most
TTITLE7=Right At Home
TTITLE8=So Much To Do
TTITLE9=Who'd Have Thought It
TTITLE10=One Candle
TTITLE11=Count Me In
TTITLE12=Family Bible
TTITLE13=Bottle Tree Lane (Reprise)
EXTD=
EXTT0=
EXTT1=
EXTT2=
EXTT3=
EXTT4=
EXTT5=
EXTT6=
EXTT7=
EXTT8=
EXTT9=
EXTT10=
EXTT11=
EXTT12=
EXTT13=
PLAYORDER=
